# xmcd
#
# Track frame offsets:
#	150
#	19922
#	29545
#	52865
#	88488
#	108331
#	126071
#	143682
#
# Disc length: 2217 seconds
#
# Revision: 2
# Processed by: cddbd v1.5PL3 Copyright (c) Steve Scherf et al.
# Submitted via: audiograbber 1.83.01
#
DISCID=6708a708
DTITLE=Тарас Чубай - "Плач Єремії" - Світло і сповідь
DYEAR=2003
DGENRE=Jazz
TTITLE0=Із Янголом на плечі
TTITLE1=Світло і сповідь ч. 1-2
TTITLE2=Світло і сповідь ч. 3
TTITLE3=Світло і сповідь ч. 4-8
TTITLE4=Відшукування причетного
TTITLE5=День відходить ...
TTITLE6=Літо
TTITLE7=Я так довго мовчав ...
EXTD=
EXTT0=
EXTT1=
EXTT2=
EXTT3=
EXTT4=
EXTT5=
EXTT6=
EXTT7=
PLAYORDER=
